<svg xmlns="http://www.w3.org/2000/svg" width="519.22504" height="198.20075" viewBox="0 0 519.22504 198.20075">
  <defs>
    <style>
      .a {
        font-size: 64px;
        font-family: CharcuterieEngraved, Charcuterie Engraved;
      }

      .b {
        letter-spacing: -0.03299em;
      }

      .c {
        font-size: 18px;
        font-family: DroidSerif, Droid Serif;
      }

      .d {
        letter-spacing: -0.00977em;
      }
    </style>
  </defs>
  <title>v_C_3</title>
  <g>
    <path d="M85.09951,6.59742h20.05917c3.36522.97788,6.37922,3.01688,10.10975,2.91889,7.93766-.2085,15.73922.18579,23.12925,3.83163A20.86281,20.86281,0,0,1,150.242,33.12313c-.213,4.136-1.58416,8.45344,1.11353,12.3561v9.11293c-1.71495,1.0758-2.83249-.08963-3.49016-1.29008-2.374-4.33322-5.6706-6.54317-10.79093-7.39327-7.16178-1.189-13.12121.04221-18.1848,5.18645-1.43714,1.46-2.81652,2.93181-4.81246,3.57746a3.56863,3.56863,0,0,0-2.13042,1.59664c-3.52777,6.14289-9.59927,10.45671-12.33267,17.19422a6.33757,6.33757,0,0,1-2.35953,2.72113c-2.38256,1.53462-1.30655,2.75643.20421,3.88966a5.91913,5.91913,0,0,0,2.73181,1.24142c3.74872.38881,5.77991,3.35914,8.43716,5.37518a3.0927,3.0927,0,0,1,1.02019,3.57335c-.5852,1.90137-.47578,4.24687-3.80195,3.96253-1.95468-.16708-2.34585,3.47216-4.93605,3.0473-.14839-.02434-.26212-.25973-.62126-.63909,2.17907-1.67665,1.2638-4.18226,1.53-6.41767.13357-1.12154.02957-2.80549-1.23495-3.13661-1.24364-.32567-1.54133,1.29512-2.1365,2.18163-.4145.61739-.57107,1.7449-1.67194,1.31624-.834-.32478-.59052-1.20417-.45489-1.88186.68582-3.42675-.53082-5.88061-3.622-7.51664a14.86827,14.86827,0,0,1-2.95438-2.12506,3.80736,3.80736,0,0,0-4.67-.62862c-2.4401,1.08905-5.14039,2.48223-7.62886,2.30919-2.174-.15117-4.31493-.02564-6.54469-.2912,1.97082,5.75788,3.99324,6.81769,9.17839,5.15186a41.0701,41.0701,0,0,1,4.44186-.92558,2.74133,2.74133,0,0,1,3.35551,1.88487c1.73769,4.13693.9887,8.4071.40623,12.58486-.2315,1.66048-1.99428,2.2078-3.6741,1.632-.64693-.22176-1.44446-.80656-.2163-1.41113.77309-.38058,1.80471-.83387.841-1.64285-1.22285-1.02646-.93012-3.285-2.51255-3.5337-1.52259-.2393-1.04191,1.63548-1.48721,2.54541-.37629.76893-.77744,1.537-1.70273,1.49089-1.02049-.05087-.67017-.99648-.86488-1.62826-.5109-1.65779-1.29192-3.70721-2.984-3.86484-3.02417-.28172-3.98115-2.38473-5.24487-4.43185-1.27909-2.072-2.21536-4.41069-4.37527-6.11974-2.85318,9.69015-8.04163,17.95781-12.58518,26.52389-2.31391,4.36248-4.20829,8.947-7.25906,12.93451a17.41836,17.41836,0,0,1-12.93854,6.82081,30.7123,30.7123,0,0,0-6.53322.86253H20.667c-2.11583-1.36845-1.83987-3.5455-1.65049-5.91454-1.44314.80149-2.56586,1.43282-3.69574,2.05108-3.64052,1.992-7.35972,3.21279-11.44779,1.26668-1.26669-.603-2.58068-1.10673-3.873-1.65592v-2.43011a28.07547,28.07547,0,0,1,5.883-9.11364c3.20178-3.37993,6.27834-6.88081,9.3441-10.38615a49.56252,49.56252,0,0,0,6.74178-8.93473c-4.13073,1.861-7.52668,3.40136-10.93228,4.92009-1.30342.58126-2.72893,1.30184-3.93349.02063-1.20582-1.28254-.34773-2.68423.24952-3.94719a26.87224,26.87224,0,0,1,4.31836-6.1166c-2.86023,1.22879-4.52186,3.25551-6.96924,3.97388a2.85137,2.85137,0,0,1,.79778-2.45192c4.19258-5.83658,8.26475-11.82531,13.71932-16.56113,5.66191-4.91584,9.6062-11.24948,14.59668-16.70423a7.21671,7.21671,0,0,0,.8881-1.22987c5.85866-10.02737,13.247-18.87092,21.1591-27.30708a8.28664,8.28664,0,0,0,2.42747-4.45586c.71484-4.79326,5.28724-6.361,8.26145-9.03,1.129-1.01316,4.05952-1.28141,5.56345-2.79873a17.801,17.801,0,0,1,9.531-4.77248A29.56145,29.56145,0,0,0,85.09951,6.59742Z"/>
    <text class="a" transform="translate(166.58271 53.12025)">il ni<tspan class="b" x="94.97266" y="0">d</tspan><tspan x="126.33301" y="0">o</tspan></text>
    <text class="c" transform="translate(166.58271 83.48268)"><tspan class="d">a</tspan><tspan x="9.95801" y="0">t the alki homes</tspan><tspan class="d" x="146.29395" y="0">t</tspan><tspan x="152.45508" y="0">ead</tspan></text>
    <path d="M510.4184,104.99451c.07691.48352.12671.79675.17627,1.10962-1.88842.29-3.52832.16137-3.91748-2.12543a21.48937,21.48937,0,0,1-7.84155-1.46491c-1.62646-.55889-1.72705-1.397-.65283-2.497a1.55065,1.55065,0,0,1,.45312-.287c.9502-.44635,1.90454-.88428,2.81275-1.30438a3.15485,3.15485,0,0,0-3.92407,1.09155c-1.07593,1.71283-2.67261,1.54608-4.14527,1.49017-2.29223-.087-4.57422-.49078-6.85522-.80066-.8545-.116-1.69385-.34491-2.71924-.55993.60962-1.25019,1.05835-2.31446,1.62671-3.31037,2.26343-3.96594,5.78833-5.119,10.28711-4.14209a17.45888,17.45888,0,0,0,2.78.165q.03514-.28069.06958-.56128c-3.02027-.54059-6.04053-1.08111-9.34766-1.673,3.89429-2.53217,7.54761-4.90772,11.20093-7.28321q-.12342-.20443-.24658-.40893c-3.30664,1.60364-6.61353,3.20727-10.14893,4.92181V82.10046l-.4541-.03924c-.148.7677-.34009,1.52991-.43579,2.30408-.35059,2.83575-.75073,5.64465-2.83032,7.85772-.14795.15741-.35743.45642-.3003.57508.42163.87591-.39062,1.15155-.75049,1.63678a13.20651,13.20651,0,0,0-.95605,1.19458,21.34088,21.34088,0,0,0-2.38672,7.88531c-.27856,2.074-.34326,4.1767-.62134,6.25079a5.51126,5.51126,0,0,1-4.35425,4.98548,71.411,71.411,0,0,1-9.38793,1.22632c-3.802.31359-7.61939.48712-11.43335.582a26.54967,26.54967,0,0,1-4.53125-.48249,1.44178,1.44178,0,0,1-1.32276-1.756c.10132-.92437.20947-1.848.33765-2.97113-.80322,1.10443-1.44116,2.10205-2.19824,2.9989-1.72266,2.04016-4.29029,2.22919-6.63282,2.76191-3.33813.75909-6.73755,1.24322-10.10083,1.8977-2.144.41718-4.28271.87634-6.3999,1.41156-4.17236,1.05469-8.31665,2.22168-12.49731,3.241-1.27.30963-2.45337,1.11529-3.9441.46991-4.894-2.119-9.84448-4.1081-14.76123-6.17523-.95654-.40217-1.8601-.93085-2.96337-1.48993a13.962,13.962,0,0,1,6.18261-1.22608c.59522.00665.98169-.27929,1.09326-1.0094a8.25923,8.25923,0,0,1,.81934-2.85c1.93335-3.352,4.00781-6.62232,5.98608-9.94886A4.71236,4.71236,0,0,1,410.25,99.05212c.43921.05487.86792.22919,1.30639.252,3.115.16156,6.22681.58844,9.35035.06158,1.053-.17767,2.123-.2605,3.1875-.36261a21.89539,21.89539,0,0,0,7.36694-1.84656,49.985,49.985,0,0,0,5.91089-3.38537c1.66723-1.09265,3.17944-2.4198,4.77636-3.62219,2.83472-2.13459,5.29419-4.70722,8.79834-6.00751,2.72876-1.01257,4.92994-3.13428,6.97437-5.26056a6.47793,6.47793,0,0,0,.79639-1.39514q-.19044-.14245-.38037-.285c-.38306.31-.76294.62409-1.14966.92939a49.31123,49.31123,0,0,1-4.35718,3.37823c-1.94531,1.20722-4.13135,2.02826-6.0669,3.24866-3.25659,2.05328-6.34716,4.37024-9.60693,6.41772-1.81225,1.13825-3.83008,1.948-5.7439,2.92762a1.21785,1.21785,0,0,0-.61279.585,2.68573,2.68573,0,0,1-2.2854,1.73736,69.06147,69.06147,0,0,1-7.7019,1.29633,34.734,34.734,0,0,1-10.50708-.52466c-.75782-.15381-1.53467-.2149-2.43555-.33667,1.47217-3.78925,3.60132-7.201,4.3252-11.24542-1.07129.22412-1.12842.24414-1.38013-.47211a38.01442,38.01442,0,0,1-2.2771-12.85193,2.67024,2.67024,0,0,1,1.92041-2.73749,14.81546,14.81546,0,0,1,3.50439-.78808c2.88086-.1181,5.76953-.03125,8.65479-.06427.85376-.00977,1.71045-.24048,2.55786-.201a25.95352,25.95352,0,0,1,4.7439.45849c2.23779.529,4.36963,1.53718,6.61767,1.98621,4.04712.80847,8.14649,1.35724,12.22559,2.00409.49389.07831.9978.09229,1.49707.13611q.02709-.18219.05469-.36444a29.44652,29.44652,0,0,0-3.28223-.96253c-3.03223-.53381-6.12012-.80255-9.11328-1.49109a51.8138,51.8138,0,0,1-6.502-2.31518,3.38689,3.38689,0,0,1-.80884-.65137c2.04467-2.12359,2.04467-2.12359,1.68286-3.1416-.49878.44562-.9812.83856-1.41919,1.276a3.13083,3.13083,0,0,1-3.15137.86975.96675.96675,0,0,1-.28515-1.80511,2.40053,2.40053,0,0,0,1.241-2.21393,3.6889,3.6889,0,0,1,1.708-2.86737c.24927-.18207.50488-.35529.75757-.53259l-.09082-.26105c-.43115.10229-1.0127.06262-1.26734.33191a13.66747,13.66747,0,0,0-2.87475,3.47961,5.98487,5.98487,0,0,1-4.48413,3.557,44.80424,44.80424,0,0,1-6.31128,1.24188c-3.07373.28546-6.26172,1.08844-9.09839-.96326-1.02588,1.23847-.96484,1.64435.439,2.47492a7.93685,7.93685,0,0,0-.99658,1.787,8.81608,8.81608,0,0,0-.03833,2.14752,2.31426,2.31426,0,0,0-.63354-.09241c-.53858.048-1.072.15271-1.60742.23432a18.64249,18.64249,0,0,0,.68066,1.75738c.24292.48676.72559.87665.8855,1.37842.9292,2.91333,1.8435,5.83343,2.66406,8.77869a9.01025,9.01025,0,0,1-.02466,6.16363c-.665,1.5412-1.293,3.10419-2.05957,4.59448-2.822,5.485-6.54858,10.386-10.104,15.39228a5.785,5.785,0,0,1-2.20459,1.83953,13.25142,13.25142,0,0,1-6.05322,1.04541c-3.07837-.105-6.16358-.00317-9.2417-.11224a23.31419,23.31419,0,0,1-3.50953-.64807q.00257-.27293.00489-.5459a6.42993,6.42993,0,0,1,1.67627-.34125,5.17945,5.17945,0,0,0,5.15014-2.86389,11.41871,11.41871,0,0,1,2.51929-3.08429c.03589-.03271.00464-.139.00464-.21093-1.49463-.43281-1.8335-.98407-1.4773-2.53193a3.2727,3.2727,0,0,1,.5232-1.21923c.57837-.76551,1.28467-1.43665,1.83911-2.21705a3.905,3.905,0,0,0,.34936-1.291,4.45271,4.45271,0,0,0-1.49462-.28479,4.19027,4.19027,0,0,0-1.73365.72742c-1.31885.95861-2.69043,2.01568-2.35327,4.06567a4.65915,4.65915,0,0,1-2.98584,5.20264c-1.28174.57019-2.604,1.05566-3.92944,1.51818-.92261.322-1.88159.5398-2.95825.84168.18115-1.21021.31152-2.29773.511-3.37238.58594-3.157,1.37256-6.28845,1.74805-9.46917.3103-2.62555.02881-5.31568.22192-7.96167.26709-3.653.74536-7.29029,1.10352-10.93726a14.00547,14.00547,0,0,0-.05347-1.84344l-.39136-.01508a7.15813,7.15813,0,0,0-1.41919,4.11517c-.44653,4.50232-.74633,9.01892-1.14819,13.52594-.25195,2.8277-.44751,5.67212-.93506,8.46253-.27539,1.57684-1.166,3.03644-1.63916,4.59155a3.00373,3.00373,0,0,1-2.5542,2.27124q-1.79149.3262-3.57959.6687c-2.28881.43878-4.5874.83362-6.86206,1.33692-3.49243.77282-6.968,1.62182-10.45092,2.43841-.87964.20624-1.75928.41211-2.897.67865.65918-.93316,1.18238-1.67346,1.84278-2.60827-1.46534-.08857-2.59693-.26368-3.40528.88177a1.48714,1.48714,0,0,1-.70019.49c-2.53906.879-5.05982,1.82556-7.63745,2.57507-3.36206.97754-6.75928,1.84162-10.1626,2.66675-3.83374.92939-7.68042,1.81324-11.54395,2.60828-1.43506.29535-2.97216.68549-4.31445-.45905-.13672-.11645-.52124-.05651-.72852.04651-.56225.27924-1.07251.66333-1.637.93726a11.77406,11.77406,0,0,1-3.03857,1.32513,19.368,19.368,0,0,1-7.94751-.2929c-3.31128-.84961-6.63941-1.63685-9.97388-2.39161-3.3374-.75549-6.68115-1.48974-10.041-2.13629-2.84742-.54791-5.71241-1.02453-8.58594-1.41229-4.23828-.572-8.48389-1.11-12.7395-1.52625-3.91675-.38311-7.85572-.5368-11.77613-.8861-2.62207-.23359-5.23681-.58313-7.84155-.97046-2.979-.44306-5.928-1.12445-8.91772-1.45075-4.06226-.44342-8.1504-.65283-12.228-.95392-2.37012-.175-4.74146-.33453-7.11255-.49835a70.80923,70.80923,0,0,1-14.29077-2.34c-3.47-.97376-6.824-2.3581-10.28858-3.35456-3.9309-1.13067-7.93506-2.00439-11.89282-3.04523-2.3374-.61474-4.64966-1.32727-6.96557-2.02093-.34913-.10461-.82544-.26593-.95606-.53839-.61182-1.27863-1.76709-1.33069-2.91943-1.46112a2.74026,2.74026,0,0,1-.7439-.222c-2.842-1.2066-5.6333-2.55163-8.53149-3.60144-4.37232-1.58355-8.814-2.9768-13.23487-4.42328-3.39868-1.112-6.81274-2.17681-10.217-3.27154-1.73-.55628-3.45288-1.13458-5.18042-1.69763a7.8178,7.8178,0,0,0-1.59521-.47052,12.77572,12.77572,0,0,0-3.43042-.116c-1.31958.238-2.54273.97815-3.8584,1.27753a28.01991,28.01991,0,0,1-4.37451.55426c-1.509.099-3.04663-.08692-4.53614.11462A21.62671,21.62671,0,0,0,97.13154,87.687a21.34414,21.34414,0,0,1-3.00342.815q-3.56359.55784-7.154.94-4.00269.42507-8.02149.69464c-2.70141.184-5.40893.277-8.11328.42352a10.50979,10.50979,0,0,0-1.22021.24176c.39282,2.89862.69409,5.71722,1.18969,8.50122a3.29859,3.29859,0,0,0,2.23292,2.58142c2.887,1.08209,5.78808,2.15949,8.57373,3.47211,4.85815,2.28924,9.64746,4.72656,14.43725,7.15826a15.11576,15.11576,0,0,0,6.876,2.07953,4.62951,4.62951,0,0,1,1.60376.39478c2.70825,1.04907,5.38452,2.184,8.11157,3.1809,3.14868,1.15125,6.34155,2.18171,9.50928,3.28254.88183.30652,1.76.63665,2.6084,1.02447,3.5559,1.62512,7.02221,3.48206,10.66919,4.86292,4.03051,1.52612,8.24438,2.56054,12.33837,3.92926,3.532,1.18091,7.01709,2.50586,10.50147,3.82409a12.01522,12.01522,0,0,1,2.22241,1.26361c2.34424,1.52741,4.69751,3.04334,6.99146,4.64386a12.32053,12.32053,0,0,1,2.55835,2.29346c1.93188,2.39935,2.37182,5.34345,2.75268,8.285a34.052,34.052,0,0,0,.84644,6.08984,30.13142,30.13142,0,0,0,7.45971,11.95752,14.639,14.639,0,0,0,6.04493,3.95721c1.45043.44263,2.209-.16418,1.64062-1.50677a29.94167,29.94167,0,0,0-3.231-6.08447c-2.47314-3.36774-5.23632-6.5224-7.87817-9.76636-.51-.62634-.70166-1.13489.31811-1.49469a6.12382,6.12382,0,0,0,1.4043-.91455c1.53247-1.10022,1.521-2.54737-.10913-3.409a2.7812,2.7812,0,0,1-1.5813-2.61957c-.02637-1.08514.00635-2.17169-.01513-3.25708a3.35228,3.35228,0,0,0-1.81128-3.22375,18.38553,18.38553,0,0,1-2.90259-1.90674c-3.45069-2.75726-6.86279-5.5625-10.28467-8.35565a3.2657,3.2657,0,0,1-.3855-.54828c.85376.14819,1.50171.29205,2.15747.36914,3.32276.39075,6.66626.64893,9.9668,1.17633,3.22729.51575,6.40186,1.35346,9.61768,1.9519,3.64843.679,7.30224,1.37024,10.98217,1.82911,3.02588.37725,6.0918.4469,9.14234.60547,1.70727.08874,3.4226.16485,5.12866.09918,3.54858-.13666,7.105-.257,10.63647-.60492,2.46631-.24292,4.89405-.8667,7.344-1.29212,1.13525-.19714,2.279-.35711,3.42456-.48108q3.92505-.42462,7.856-.79443c2.47924-.2373,4.95752-.50775,7.44262-.65814,2.47095-.14948,4.95044-.15186,7.42481-.24848,1.81909-.071,3.6355-.21051,5.45459-.28057,1.25634-.0484,2.51684-.07947,3.77246-.03217,2.845.10718,5.68652.31818,8.53174.39313a24.0156,24.0156,0,0,1,9.40234,1.9801,72.19551,72.19551,0,0,1,23.47827,16.70288,25.882,25.882,0,0,1,1.81177,2.66651c.96045,1.32855,1.92749,2.6557,2.96509,3.92352a1.1872,1.1872,0,0,0,1.77563.22943c.65576-.45252,1.49268-1.06921,2.16944-.983a20.24048,20.24048,0,0,1,5.40429,1.28717c3.62036,1.55585,7.12451,3.382,10.801,5.1579.15967-1.00281.31347-1.92078.45019-2.84119a2.565,2.565,0,0,0-1.13183-2.72644c-1.01953-.67242-2.03321-1.36243-3.10034-1.9519-2.84546-1.57166-5.781-2.98963-8.56592-4.65992-4.01294-2.40674-6.8982-6.05609-9.93677-9.51025a33.45272,33.45272,0,0,1-2.31885-3.12476c-.67431-.97516-1.26465-2.00793-1.92676-2.99176-.62451-.928-1.33252-1.80249-1.91479-2.75476-.12085-.19751.10229-.89221.24609-.91821a18.2842,18.2842,0,0,1,2.96631-.3194c2.95069-.04425,5.91284.12293,8.85059-.08a22.90669,22.90669,0,0,1,8.5852.65783,79.61561,79.61561,0,0,1,9.45288,3.65711,64.8037,64.8037,0,0,1,9.967,5.34753c6.58667,4.61707,13.16846,9.3,19.3064,14.48389,8.42651,7.11664,16.42139,14.74292,24.63794,22.10968,3.62134,3.24652,7.19751,6.56756,11.04126,9.5346,4.05127,3.12726,8.43189,5.82447,12.5957,8.8111,1.4187,1.01764,2.72827,2.121,4.59253,1.96973a17.00828,17.00828,0,0,0,2.05933-.41522,7.53,7.53,0,0,0-.71167-1.40418c-.59033-.74255-.35645-1.1723.438-1.38422a8.61,8.61,0,0,1,1.97363-.31256,23.05955,23.05955,0,0,1,5.4502.02851c4.70019,1.03747,9.46728,1.50726,14.22412,2.07458,1.9917.23749,4.01269.22717,6.01855.35663,1.41113.09106,2.81885.233,4.229.34314q4.4967.35137,8.99462.68555a1.95038,1.95038,0,0,0,.874-.11444c1.56152-.6637,3.10693-1.36512,4.66284-2.04224,1.7915-.77966,3.605-1.51154,5.37768-2.33148,1.39478-.64514,2.74219-1.39258,4.11084-2.09455a2.41949,2.41949,0,0,0-1.5979-.52954c-3.918.65552-7.82348,1.35565-11.29663,3.48889a11.38042,11.38042,0,0,1-5.77954,1.4065,54.509,54.509,0,0,1-5.896-.266,22.05777,22.05777,0,0,1-2.93042-.5755c-.6438-.14289-.79248-.569-.41187-1.073.78052-1.03339,1.56323-2.07288,2.43408-3.0285a16.13678,16.13678,0,0,0,2.96167-4.41,12.57331,12.57331,0,0,0-1.60937.81189c-2.51782,1.82941-5.03467,3.6615-7.51319,5.54376a6.59375,6.59375,0,0,1-5.84887,1.27546c-2.48755-.61591-4.94214-1.42218-7.46167-1.84131-3.97217-.66083-7.98535-.35681-11.99585-.17536a15.22243,15.22243,0,0,1-5.8252-.648,28.94481,28.94481,0,0,1-8.87695-5.5636c-2.64917-2.31189-5.24658-4.683-7.89868-6.99108-2.44776-2.13-5.1272-4.02826-7.37183-6.35022-5.17236-5.35065-10.22583-10.78077-15.83227-15.72754a258.43166,258.43166,0,0,0-21.15894-16.631c-4.0061-2.85328-8.42407-5.128-12.65674-7.66315-.33227-.199-.66626-.395-.99927-.59229a27.11168,27.11168,0,0,1,7.54151.64881,126.475,126.475,0,0,1,15.96435,5.07367,16.17976,16.17976,0,0,1,1.86475.76233c3.87939,1.97668,7.677,4.13049,11.63818,5.92468,4.88965,2.2149,9.91163,4.138,14.88013,6.17859a2.88679,2.88679,0,0,0,.64819.1065l.189-.34381c-.71851-.54657-1.42432-1.1109-2.15894-1.63489-.78881-.56262-1.636-1.04821-2.38916-1.65289a1.11153,1.11153,0,0,1-.25171-.96747c.04883-.17932.53711-.283.843-.33862a13.93626,13.93626,0,0,0,1.427-.15985c1.165-.34308,2.291-.82849,3.46509-1.13025,3.31812-.85291,6.645-1.67621,9.98438-2.44135a4.92128,4.92128,0,0,1,4.34155.82843c.93311.744,1.77832,1.597,2.688,2.37189a12.18666,12.18666,0,0,0,2.54492,1.98865,3.37209,3.37209,0,0,1,1.85669,2.08636c.28345.77088.50464,1.56617.81909,2.32337a3.689,3.689,0,0,0,.87915,1.52032,1.87949,1.87949,0,0,0,1.57373.27106c.33008-.13049.59888-.87933.57324-1.3349a5.10789,5.10789,0,0,0-.58569-1.91229,24.47037,24.47037,0,0,0-6.2915-7.798,9.012,9.012,0,0,1-1.22657-1.6275,14.81763,14.81763,0,0,1,2.19214-.48785c.699-.05365,1.1814-.21765,1.374-1.00861a2.38353,2.38353,0,0,0-.65357-.22387c-2.51977-.02967-5.04419-.13636-7.55859-.024a39.58677,39.58677,0,0,0-5.46582.72564c-1.61914.30225-3.187.8935-4.80982,1.16047-2.94775.485-5.92041.81848-8.88134,1.22558a16.26628,16.26628,0,0,1-6.85987-.66052c-3.81128-1.13367-7.54126-2.5448-11.292-3.87671-.9436-.33508-1.83813-.80957-2.75366-1.22278-3.49732-1.578-6.94385-3.28436-10.50879-4.69031-2.30933-.9107-4.9187-1.10247-7.16455-2.12139-2.94092-1.33442-6.04053-1.47254-9.10352-1.97266-1.79883-.29376-3.61572-.47626-5.41894-.74585a8.21626,8.21626,0,0,1-1.314-.42267q-.01354-.15426-.02685-.30847a8.13437,8.13437,0,0,1,1.49048-.54944c1.3894-.22882,2.79077-.38721,4.18969-.55322,1.65235-.19611,3.311-.34357,4.96045-.56189,2.054-.27173,4.11426-.53113,6.13989-.94928.39673-.08191.64917-.86353.96827-1.32239a4.53137,4.53137,0,0,0-1.26294-.60083,11.13739,11.13739,0,0,0-1.43067.2c-.67578.004-1.35205-.09875-2.02832-.15582l-.03662-.45941a46.24777,46.24777,0,0,1,4.814-1.78534c2.99707-.765,6.03271-1.40058,9.07763-1.95123a35.06464,35.06464,0,0,1,5.61353-.573c5.90332-.10108,11.80932-.04706,17.71264-.14514a30.05357,30.05357,0,0,1,9.05835.95593c3.38257.99878,6.69629,2.24939,9.99561,3.50708,3.69312,1.40784,7.33716,2.94476,11.00122,4.42834a24.33423,24.33423,0,0,1,3.30176,1.3927,3.6691,3.6691,0,0,0,3.31543.32367c1.61767-.58862,3.20947-1.24829,4.81689-1.86548,2.17774-.83606,4.33252-1.7445,6.54834-2.46423a39.82768,39.82768,0,0,1,5.70655-1.431c2.28491-.38208,4.62377-.43512,6.91479-.78809,3.072-.47332,6.10962-1.1734,9.18408-1.62707a35.87324,35.87324,0,0,1,5.20557-.27405c3.04663-.0014,6.093.09729,9.1394.1452,1.56543.0246,3.13868-.06262,4.69483.06537a20.30481,20.30481,0,0,0,7.106-.84485c2.99024-.81982,5.99341-1.60742,9.02247-2.26312a14.98119,14.98119,0,0,1,4.00659-.245c2.82055.16632,5.63086.50427,8.44922.72436.80273.06275,1.53491-.0108,1.63208-1.17926a2.35743,2.35743,0,0,1,1.02636-1.39819c.74951-.53,1.655-.83338,2.43848-1.32227,1.23779-.77228,2.585-1.45794,3.3064-3.30639a5.65238,5.65238,0,0,0-1.387.60662,10.39114,10.39114,0,0,1-5.47924,2.52234,2.08415,2.08415,0,0,0-1.23682.77637,2.8741,2.8741,0,0,1-4.58936.67328,4.14526,4.14526,0,0,0-3.00464-.91516c-.80761.02045-1.61718-.01312-2.42553-.03583-.679-.019-.89575-.33368-.75855-1.02685.43457-2.20026.74146-4.42872,1.25562-6.609a5.57248,5.57248,0,0,1,1.29931-2.61371c1.71338-1.69171,3.89307-.95795,5.82251-.54621,2.46.525,4.81861,1.50617,7.24927,2.19043,3.04444.85712,6.12232,1.59461,9.17652,2.41846a8.35783,8.35783,0,0,0,5.13427-.38837c1.85987-.67834,3.65943-1.52465,5.47168-2.32867a7.15154,7.15154,0,0,0,1.11157-.86011C516.03681,103.56482,513.58711,105.72656,510.4184,104.99451ZM268.01582,125.16815c-1.77466.12567-3.55713.148-5.33643.194-2.96216.07672-5.926.10419-8.88672.21454-2.74243.10224-5.481.30274-8.22265.42871-2.65528.122-5.313.18854-7.96827.311-1.13964.05261-2.27832.16131-3.41308.28631-2.77051.30524-5.53858.63428-8.30762.95484-4.00708.46393-8.00537,1.03967-12.02393,1.35864a88.1452,88.1452,0,0,1-9.89672.26459,37.74574,37.74574,0,0,1-10.85816-2.33435,10.1236,10.1236,0,0,0-1.63135-.39423c-3.66943-.59662-7.33129-1.25073-11.01464-1.74255-4.08789-.54584-8.19629-.93927-12.2959-1.39771-2.696-.30151-5.40137-.5376-8.08692-.9154-4.08593-.57477-8.19409-1.07593-12.22583-1.92542-4.1062-.86511-8.1748-1.97528-12.18042-3.23193-4.32934-1.35834-8.59131-2.94519-12.83667-4.55341-3.93383-1.49023-7.78247-3.20587-11.71533-4.69891-3.06225-1.16254-6.17627-2.20044-9.30347-3.1781a56.47086,56.47086,0,0,1-14.8623-6.59619c-.23462-.15711-.46-.32837-.92334-.66071,1.94727-.18628,3.625-.344,5.302-.50818,1.13843-.11139,2.27857-.21277,3.41382-.35187,2.53638-.31066,5.06836-.65838,7.60547-.96124,3.37231-.40253,6.74878-.76947,10.12158-1.16705,1.14453-.13489,2.29761-.25092,3.42285-.48859,3.90259-.82416,7.58057.34143,11.29346,1.20868a25.76335,25.76335,0,0,1,2.574.71478c3.33667,1.15583,6.66358,2.34064,9.99244,3.519,1.09179.38641,2.198.74017,3.2644,1.18762,3.88574,1.63013,7.73853,3.33984,11.64233,4.92407,1.85035.75085,3.8003,1.252,5.68238,1.92889a48.53352,48.53352,0,0,1,4.76343,1.89258,88.85542,88.85542,0,0,0,11.4707,4.66791c.63818.20575,1.3103.30457,1.96338.46674,2.53.62835,5.12256,1.08093,7.57226,1.94a37.77919,37.77919,0,0,0,9.47583,1.93548c2.70191.22425,5.39038.61121,8.09156.84577,3.85131.33447,7.70605.643,11.56445.87414,3.70434.22187,7.41992.26166,11.12207.51111a54.77441,54.77441,0,0,0,9.26172-.42236,81.93128,81.93128,0,0,1,8.31274-.09247q1.838.00156,3.67578.09491c2.08423.10309,4.18213.122,6.24683.38818,3.34326.431,6.67554.97425,9.99121,1.58442,2.228.41,4.42188,1.00891,6.626,1.54412a8.51215,8.51215,0,0,1,1.11816.43964l.02271.43439C270.41865,124.83679,269.22285,125.0827,268.01582,125.16815ZM307.801,150.38593c1.09107,1.22906,2.16944,2.47106,3.20191,3.74884a6.57554,6.57554,0,0,1,.66382,1.36938q-.14722.19593-.29395.39179a4.67635,4.67635,0,0,1-1.34033-.687,18.8921,18.8921,0,0,1-2.13477-2.58148,32.66162,32.66162,0,0,0-9.29126-9.24774c-5.324-3.49066-10.78393-6.77405-16.18384-10.14893-.40039-.25012-.78515-.525-1.177-.78827q.02894-.19134.05738-.38269c.77124,0,1.54248-.00781,2.31347.00171,1.37012.01685,2.73975.0495,4.10987.06592,1.89843.02265,3.79809.076,5.69531.03345a1.33328,1.33328,0,0,1,1.37915.83453,59.25508,59.25508,0,0,0,4.49048,7.73578C301.9062,144.12036,304.95234,147.17615,307.801,150.38593Z"/>
  </g>
</svg>
